<svg width="88" height="88" viewBox="0 0 88 88" fill="none" xmlns="http://www.w3.org/2000/svg">
    <!--skills-->
    <g id="gitHubSvg">
        <path fill-rule="evenodd" clip-rule="evenodd"
              d="M44 0C19.69 0 0 19.69 0 44C0 63.47 12.595 79.915 30.085 85.745C32.285 86.13 33.11 84.81 33.11 83.655C33.11 82.61 33.055 79.145 33.055 75.46C22 77.495 19.14 72.765 18.26 70.29C17.765 69.025 15.62 65.12 13.75 64.075C12.21 63.25 10.01 61.215 13.695 61.16C17.16 61.105 19.635 64.35 20.46 65.67C24.42 72.325 30.745 70.455 33.275 69.3C33.66 66.44 34.815 64.515 36.08 63.415C26.29 62.315 16.06 58.52 16.06 41.69C16.06 36.905 17.765 32.945 20.57 29.865C20.13 28.765 18.59 24.255 21.01 18.205C21.01 18.205 24.695 17.05 33.11 22.715C36.63 21.725 40.37 21.23 44.11 21.23C47.85 21.23 51.59 21.725 55.11 22.715C63.525 16.995 67.21 18.205 67.21 18.205C69.63 24.255 68.09 28.765 67.65 29.865C70.455 32.945 72.16 36.85 72.16 41.69C72.16 58.575 61.875 62.315 52.085 63.415C53.68 64.79 55.055 67.43 55.055 71.555C55.055 77.44 55 82.17 55 83.655C55 84.81 55.825 86.185 58.025 85.745C66.7597 82.796 74.3497 77.1822 79.7268 69.6937C85.1039 62.2052 87.9974 53.219 88 44C88 19.69 68.31 0 44 0Z"
              fill="#FFFEFE"/>
    </g>
    <g id="gitSvg">
        <g clip-path="url(#clip0_2_5868)">
            <path d="M103.02 47.8219L57.1758 1.98038C54.5372 -0.6598 50.2552 -0.6598 47.6134 1.98038L38.0937 11.5001L50.1699 23.5763C52.9762 22.6281 56.1943 23.2642 58.4313 25.5012C60.6789 27.7525 61.3106 30.9981 60.3393 33.8134L71.9775 45.452C74.7932 44.482 78.0421 45.1095 80.291 47.3621C83.434 50.5039 83.434 55.596 80.291 58.7399C77.1471 61.8841 72.055 61.8841 68.9095 58.7399C66.5454 56.3733 65.9613 52.9013 67.1582 49.9888L56.3046 39.1352L56.3034 67.6973C57.0902 68.0863 57.8088 68.6002 58.4313 69.2189C61.5743 72.3607 61.5743 77.4532 58.4313 80.5995C55.2874 83.7422 50.1929 83.7422 47.0535 80.5995C43.9105 77.4532 43.9105 72.3611 47.0535 69.2193C47.8067 68.4658 48.7019 67.869 49.6871 67.4635V38.6352C48.7004 38.2324 47.8048 37.6353 47.0535 36.8793C44.6722 34.5013 44.0996 31.0071 45.3198 28.0831L33.4154 16.1775L1.98105 47.6099C-0.660352 50.2525 -0.660352 54.5349 1.98105 57.1755L47.8259 103.018C50.4652 105.658 54.7464 105.658 57.3891 103.018L103.019 57.3884C105.66 54.747 105.66 50.4621 103.019 47.8219"
                  fill="#DE4C36"/>
        </g>
        <defs>
            <clipPath id="clip0_2_5868">
                <rect width="105" height="105" fill="white"/>
            </clipPath>
        </defs>
    </g>
    <g id="reactSvg">
        <g clip-path="url(#clip0_2_5870)">
            <path d="M92.9056 32.7028C91.7031 32.2887 90.4904 31.9051 89.2687 31.5524C89.4739 30.7107 89.6628 29.8792 89.8306 29.0624C92.5838 15.6484 90.7839 4.84184 84.6361 1.28381C78.7416 -2.12716 69.1016 1.42955 59.3659 9.93348C58.4064 10.7731 57.4682 11.6369 56.5522 12.524C55.9389 11.9341 55.3149 11.3556 54.6803 10.7889C44.4767 1.69623 34.2493 -2.13602 28.1081 1.43221C22.2189 4.8538 20.475 15.0127 22.9538 27.7254C23.2004 28.9845 23.4788 30.2371 23.7888 31.4819C22.3412 31.8948 20.9442 32.3342 19.6073 32.802C7.64443 36.9882 0.00476074 43.5483 0.00476074 50.353C0.00476074 57.3809 8.20629 64.4301 20.6662 68.7044C21.6763 69.0495 22.6949 69.3693 23.7209 69.6635C23.3877 71.0042 23.0918 72.3541 22.8337 73.7114C20.4706 86.2035 22.316 96.1224 28.1893 99.5223C34.2555 103.033 44.437 99.4248 54.3506 90.7268C55.1545 90.0197 55.9407 89.2925 56.7084 88.546C57.7004 89.5067 58.7189 90.4394 59.7627 91.343C69.366 99.6365 78.8502 102.985 84.7177 99.5763C90.7782 96.055 92.748 85.3995 90.1907 72.4357C89.9893 71.42 89.7634 70.4094 89.5132 69.4048C90.2282 69.1921 90.93 68.9733 91.6141 68.7456C104.567 64.4385 112.995 57.4748 112.995 50.353C112.995 43.5235 105.109 36.9191 92.9056 32.7028ZM90.0963 64.1474C89.4783 64.3525 88.8445 64.5506 88.1984 64.7433C86.7683 60.1996 84.8387 55.3684 82.4769 50.3764C84.7305 45.5036 86.586 40.7341 87.9759 36.2201C89.1319 36.5558 90.2534 36.9098 91.3347 37.2832C101.791 40.8962 108.169 46.2372 108.169 50.353C108.169 54.7367 101.281 60.4277 90.0963 64.1474ZM85.4557 73.3765C86.5865 79.1087 86.7476 84.2916 85.9986 88.3436C85.3259 91.9845 83.9727 94.4116 82.299 95.3839C78.7385 97.4526 71.1235 94.7637 62.911 87.6707C61.9401 86.8305 60.9927 85.9634 60.0699 85.0704C63.2539 81.5757 66.4358 77.5131 69.5412 73.0009C75.0036 72.5145 80.1641 71.7189 84.844 70.6332C85.0694 71.5426 85.2734 72.4574 85.4557 73.3765ZM38.5257 95.0264C35.0469 96.2592 32.2759 96.2947 30.6009 95.3254C27.0369 93.2625 25.5552 85.2981 27.5762 74.6151C27.8165 73.3527 28.0916 72.0973 28.4012 70.8502C33.0294 71.8779 38.1523 72.6168 43.6275 73.0625C46.7542 77.4777 50.0278 81.5358 53.3271 85.0894C52.6259 85.7704 51.9082 86.4339 51.1745 87.0793C46.7904 90.9253 42.3974 93.6541 38.5257 95.0264ZM22.2277 64.1204C16.7181 62.2302 12.168 59.7739 9.04931 57.0934C6.24661 54.6849 4.83202 52.2932 4.83202 50.353C4.83202 46.2235 10.9657 40.9564 21.1962 37.3767C22.4378 36.9426 23.7372 36.5328 25.0856 36.1483C26.4997 40.7642 28.3544 45.5905 30.5926 50.4708C28.3252 55.4233 26.4441 60.3267 25.0163 64.9971C24.0798 64.7278 23.15 64.4355 22.2277 64.1204ZM27.691 26.7947C25.5676 15.9031 26.9777 7.68712 30.5268 5.62504C34.3067 3.42873 42.6653 6.56017 51.4755 14.4116C52.05 14.9247 52.6152 15.4483 53.1708 15.982C49.8879 19.5201 46.6443 23.5481 43.5454 27.9372C38.2313 28.4315 33.1446 29.2254 28.4678 30.289C28.1797 29.1311 27.9206 27.9661 27.691 26.7952V26.7947ZM76.4301 38.874C75.3255 36.9589 74.1799 35.068 72.9941 33.2025C76.5992 33.6601 80.0533 34.2674 83.297 35.0098C82.3233 38.1426 81.1095 41.4176 79.6808 44.7754C78.6365 42.7867 77.5527 40.8192 76.4301 38.874ZM56.5544 19.4443C58.7806 21.8652 61.0104 24.5679 63.2036 27.5004C58.7546 27.2895 54.2982 27.2886 49.8491 27.4977C52.0445 24.5922 54.2932 21.8931 56.5544 19.4443ZM36.5511 38.9072C35.4425 40.8368 34.3789 42.792 33.3613 44.7714C31.956 41.4255 30.7532 38.1355 29.7712 34.9584C32.9949 34.2346 36.4328 33.6428 40.0149 33.1936C38.8159 35.0705 37.661 36.9754 36.5511 38.9067V38.9072ZM40.1178 67.857C36.4169 67.4424 32.9274 66.8811 29.7045 66.1768C30.702 62.943 31.9312 59.583 33.367 56.1653C34.3887 58.1462 35.4567 60.1026 36.57 62.0331C37.7149 64.0177 38.9005 65.9615 40.1178 67.857ZM56.6877 81.6027C54.3996 79.1256 52.1177 76.3848 49.8892 73.4372C52.0528 73.5223 54.2584 73.5657 56.5001 73.5657C58.8031 73.5657 61.0797 73.5139 63.3206 73.4138C61.1203 76.4145 58.8989 79.1592 56.6877 81.6027ZM79.7263 55.9908C81.2366 59.4461 82.5096 62.7884 83.5203 65.9668C80.2444 66.7172 76.7073 67.3214 72.9804 67.7702C74.1746 65.87 75.3311 63.9462 76.4491 61.9999C77.5858 60.0215 78.6784 58.018 79.7263 55.9908ZM72.268 59.5794C70.5565 62.5635 68.7487 65.491 66.8475 68.3571C63.4038 68.6019 59.9525 68.7235 56.5001 68.7217C52.9837 68.7217 49.5635 68.6118 46.27 68.3974C44.3193 65.5379 42.477 62.6053 40.7472 59.606H40.7476C39.0259 56.6225 37.4177 53.5745 35.9265 50.4686C37.4139 47.3619 39.0172 44.3125 40.733 41.3268L40.7326 41.3272C42.4478 38.3407 44.2753 35.4207 46.2113 32.5734C49.5715 32.3183 53.0172 32.1854 56.4996 32.1854H56.5001C59.9984 32.1854 63.4486 32.3196 66.8078 32.5765C68.7243 35.4195 70.5402 38.3295 72.2521 41.3011C73.9736 44.2802 75.5982 47.3148 77.1231 50.3999C75.6138 53.5166 73.9944 56.5784 72.268 59.5794ZM82.2253 5.48062C86.0087 7.67073 87.4803 16.5025 85.103 28.0842C84.9512 28.8231 84.7808 29.5758 84.5955 30.339C79.9072 29.2528 74.8169 28.4453 69.4874 27.9434C66.3828 23.506 63.1656 19.4718 59.9361 15.9793C60.7825 15.1605 61.6491 14.3628 62.5349 13.5872C70.8768 6.30147 78.6732 3.42474 82.2253 5.48062ZM56.5001 40.2264C62.0724 40.2264 66.5898 44.7603 66.5898 50.353C66.5898 55.9456 62.0724 60.4796 56.5001 60.4796C50.9278 60.4796 46.4104 55.9456 46.4104 50.353C46.4104 44.7603 50.9278 40.2264 56.5001 40.2264Z"
                  fill="#00D8FF"/>
        </g>
        <defs>
            <clipPath id="clip0_2_5870">
                <rect width="113" height="101" fill="white"/>
            </clipPath>
        </defs>
    </g>
    <g id="reduxSvg">
        <path id="Vector"
              d="M72.6971 69.5627C76.5688 69.1619 79.5061 65.8242 79.3725 61.8184C79.2393 57.8131 75.9012 54.6086 71.8959 54.6086H71.6291C67.4897 54.7422 64.2856 58.2135 64.4193 62.3525C64.5529 64.3553 65.3537 66.091 66.5553 67.2926C62.016 76.2385 55.0734 82.7807 44.6594 88.2549C37.5832 91.9934 30.2402 93.3287 22.8971 92.3943C16.8889 91.593 12.216 88.923 9.27827 84.5164C5.00614 77.9742 4.60573 70.8975 8.21065 63.8213C10.7475 58.7475 14.7525 55.009 17.2893 53.1398C16.7553 51.4041 15.9541 48.4668 15.5537 46.3307C-3.80574 60.35 -1.80287 79.3094 4.07172 88.2549C8.47745 94.9311 17.4229 99.0701 27.3029 99.0701C29.9729 99.0701 32.643 98.8029 35.3135 98.1357C52.4033 94.7975 65.3541 84.65 72.6971 69.5627ZM96.1955 53.0066C86.0483 41.1234 71.0951 34.5811 54.0053 34.5811H51.8693C50.6676 32.1779 48.1307 30.5754 45.327 30.5754H45.0598C40.9213 30.709 37.7172 34.1803 37.8504 38.3197C37.984 42.325 41.3217 45.5295 45.327 45.5295H45.5938C48.5311 45.3959 51.068 43.5266 52.1361 40.9898H54.5393C64.6865 40.9898 74.2992 43.927 82.9779 49.6684C89.6533 54.0746 94.4598 59.816 97.1299 66.7586C99.3996 72.3664 99.266 77.8406 96.8627 82.5139C93.1246 89.5902 86.8496 93.4623 78.5717 93.4623C73.2311 93.4623 68.1578 91.8598 65.4873 90.6582C64.0188 91.9934 61.3484 94.1295 59.4791 95.4652C65.2205 98.1352 71.0951 99.6041 76.7025 99.6041C89.5197 99.6041 98.9992 92.5275 102.604 85.4512C106.476 77.707 106.209 64.3553 96.1955 53.0066ZM28.3709 71.832C28.5045 75.8377 31.8422 79.0418 35.8475 79.0418H36.1147C40.2537 78.9086 43.4578 75.4369 43.3242 71.2979C43.191 67.2922 39.8529 64.0881 35.8475 64.0881H35.5807C35.3135 64.0881 34.9127 64.0881 34.6463 64.2213C29.1721 55.1422 26.9025 45.2623 27.7037 34.5807C28.2373 26.5697 30.9078 19.6266 35.5807 13.8852C39.4525 8.94508 46.9291 6.5418 52.0029 6.40861C66.1549 6.14139 72.1627 23.7656 72.5635 30.8422C74.2992 31.2426 77.2365 32.1775 79.2393 32.8451C77.6369 11.2156 64.2856 0 51.4688 0C39.4524 0 28.3709 8.67869 23.9647 21.4963C17.8234 38.5865 21.8287 55.009 29.3053 67.9602C28.6381 68.8947 28.2373 70.3635 28.3709 71.8324V71.832Z"
              fill="#764ABC"/>
    </g>
    <g id="cssSvg">
        <path d="M22.1325 101.154L13.71 7.4375H106.29L97.8562 101.139L59.9437 111.562L22.1325 101.154Z" fill="#1572B6"/>
        <path d="M60 103.597L90.6375 95.1739L97.845 15.1018H60V103.597Z" fill="#33A9DC"/>
        <path d="M60 49.054H75.3375L76.395 37.2842H60V25.7896H89.0625L88.785 28.8724L85.9387 60.5487H60V49.054Z"
              fill="white"/>
        <path d="M60.0713 78.9045L60.0188 78.9193L47.1113 75.4609L46.2863 66.2942H34.65L36.2738 84.3413L60.015 90.8788L60.0713 90.864V78.9045Z"
              fill="#EBEBEB"/>
        <path d="M74.3513 60.0615L72.9563 75.4534L60.03 78.9119V90.8714L83.79 84.3412L83.9663 82.4001L85.98 60.0615H74.3513Z"
              fill="white"/>
        <path d="M60.0413 25.7896V37.2842H32.0438L31.8113 34.6997L31.2825 28.8724L31.005 25.7896H60.0413ZM60 49.054V60.5487H47.2538L47.0213 57.9642L46.4963 52.1369L46.2188 49.054H60Z"
              fill="#EBEBEB"/>
    </g>
    <g id="htmlSvg">
        <path d="M22.1325 102.004L13.7063 7.5H106.294L97.8563 101.989L59.9438 112.5L22.1325 102.004Z" fill="#E44F26"/>
        <path d="M60 104.468L90.6375 95.9738L97.845 15.2288H60V104.468Z" fill="#F1662A"/>
        <path d="M60 50.2763H44.6625L43.605 38.4075H60V26.8163H30.9375L31.215 29.9288L34.0613 61.8675H60V50.2763ZM60 80.3775L59.9475 80.3925L47.04 76.9088L46.215 67.665H34.5787L36.2025 85.86L59.9475 92.4525L60 92.4375V80.3775Z" fill="#EBEBEB"/>
        <path d="M59.9587 50.2763V61.8675H74.2312L72.8887 76.9013L59.9587 80.3888V92.4488L83.7225 85.86L83.895 83.9025L86.6175 53.3888L86.9025 50.2763H59.9587ZM59.9587 26.8163V38.4075H87.9562L88.1887 35.805L88.7175 29.9288L88.995 26.8163H59.9587Z" fill="white"/>
    </g>
    <g id="jsSvg">
        <path d="M7.5 7.5H112.5V112.5H7.5V7.5Z" fill="#F5DE19"/>
        <path d="M78.0338 89.5312C78.9284 91.3485 80.3183 92.8759 82.0434 93.9375C83.7684 94.9991 85.7584 95.5515 87.7838 95.5313C91.8713 95.5313 94.485 93.4875 94.485 90.6562C94.485 87.2812 91.8 86.0738 87.3 84.105L84.8325 83.0475C77.7075 80.0138 72.9825 76.215 72.9825 68.1825C72.9825 60.7838 78.6075 55.1475 87.4313 55.1475C90.2877 54.9412 93.1416 55.5805 95.637 56.9856C98.1324 58.3907 100.159 60.4994 101.464 63.0488L93.75 67.98C93.2476 66.716 92.3728 65.6345 91.2416 64.879C90.1105 64.1236 88.7764 63.7298 87.4163 63.75C86.8229 63.6906 86.2236 63.7555 85.6567 63.9404C85.0897 64.1254 84.5675 64.4265 84.1234 64.8244C83.6792 65.2224 83.3228 65.7085 83.0769 66.2518C82.831 66.7951 82.7009 67.3837 82.695 67.98C82.695 70.9388 84.5288 72.1388 88.7625 73.98L91.23 75.0375C99.615 78.6338 104.355 82.2975 104.355 90.5363C104.355 99.42 97.3763 104.287 88.005 104.287C84.3537 104.52 80.713 103.691 77.5223 101.901C74.3317 100.11 71.7274 97.4342 70.0238 94.1963L78.0338 89.5312ZM43.1775 90.3863C44.7263 93.135 46.1363 95.46 49.5263 95.46C52.7663 95.46 54.8138 94.1925 54.8138 89.2612V55.71H64.68V89.3925C64.68 99.6075 58.68 104.257 49.9463 104.257C46.8591 104.426 43.7931 103.657 41.1513 102.051C38.5096 100.444 36.4157 98.0761 35.145 95.2575L43.1775 90.3863Z" fill="black"/>
    </g>
    <g id="materialUiSvg">
        <g id="SVGRepo_bgCarrier" stroke-width="0"/>

        <g id="SVGRepo_tracerCarrier" stroke-linecap="round" stroke-linejoin="round"/>

        <g id="SVGRepo_iconCarrier"> <g> <polygon fill="#00B0FF" points="0 110.848 0 0 96 55.424 96 92.3733333 32 55.424 32 129.322667"> </polygon> <polygon fill="#0081CB" points="96 55.424 192 0 192 110.848 128 147.797333 96 129.322667 160 92.3733333 160 55.424 96 92.3733333"> </polygon> <polygon fill="#00B0FF" points="96 129.322667 96 166.272 160 203.221333 160 166.272"> </polygon> <path d="M160,203.221333 L256,147.797333 L256,73.8986667 L224,92.3733333 L224,129.322667 L160,166.272 L160,203.221333 Z M224,55.424 L224,18.4746667 L256,5.68434189e-14 L256,36.9493333 L224,55.424 Z" fill="#0081CB"> </path> </g> </g>
    </g>
    <g id="styledSvg">
            <g clip-path="url(#clip0_1_3263)">
                <path d="M68.7672 118.279C68.9472 117.872 69.4014 117.589 69.7314 117.246C74.7665 111.967 79.8444 106.735 84.811 101.391C86.3651 99.9558 87.5661 98.1804 88.3199 96.2036C89.0737 94.2269 89.36 92.1026 89.1562 89.9968C89.0003 89.0951 88.7957 88.2025 88.5434 87.3229C87.1893 88.6084 85.9294 89.7783 84.661 90.9567C82.6898 92.7908 80.7272 94.6334 78.7389 96.4461C77.5664 97.6415 76.0589 98.4531 74.4155 98.7737C72.772 99.0943 71.07 98.9087 69.5342 98.2416C67.9796 97.6705 66.6269 96.6553 65.6442 95.3221C64.6614 93.9889 64.0919 92.3965 64.0063 90.7425C63.9603 90.5297 63.8987 90.3206 63.8221 90.1168C62.3094 91.4024 60.861 92.5851 59.4254 93.8021L29.5875 119.085C29.3818 119.261 29.159 119.479 28.9662 119.65H68.7458L68.6858 119.612C68.4715 119.462 68.5829 118.673 68.7672 118.279Z" fill="#FFCEBF"/>
                <path d="M27.1436 118.279C27.4974 117.818 27.9245 117.418 28.4077 117.096L69.7 82.0642C72.5168 79.6731 75.3207 77.2691 78.1118 74.8522C78.4567 74.6118 78.727 74.2791 78.8918 73.8924C79.5594 70.9831 79.654 67.9717 79.1703 65.0263C78.7418 65.3262 78.5104 65.4548 78.3132 65.6648C74.9322 68.6901 71.5683 71.7412 68.1702 74.7494C67.0445 75.8824 65.5885 76.6292 64.0116 76.8825C62.4346 77.1359 60.818 76.8826 59.3941 76.1592C57.9414 75.4734 56.7256 74.3709 55.9014 72.992C55.0773 71.6131 54.682 70.0201 54.766 68.4159V67.0275C54.1447 67.4817 53.6905 67.7859 53.2662 68.1287C36.7396 81.3615 20.2159 94.5842 3.69496 107.797C2.94933 108.393 2.05801 109.721 1.08098 108.431C0.103957 107.141 1.59092 106.61 2.34083 106.01C19.953 91.8774 37.5738 77.7576 55.2031 63.6507C58.0742 61.3496 58.2628 60.3854 56.3944 56.7301L55.2803 57.7757C52.2249 60.6168 49.1353 63.4193 46.1271 66.3075C44.8931 67.4978 43.3476 68.3148 41.6691 68.6641C39.9906 69.0135 38.2476 68.8809 36.6412 68.2818C35.0348 67.6827 33.6306 66.6415 32.5908 65.2784C31.5509 63.9153 30.9178 62.2858 30.7646 60.5782C30.1947 61.0067 29.7019 61.3196 29.2348 61.6838L3.09503 81.9443C2.64419 82.3864 2.13005 82.7591 1.5695 83.0498C1.14643 83.1777 0.692134 83.155 0.283936 82.9856V119.671H27.0922C26.9925 119.451 26.9453 119.21 26.9542 118.969C26.9631 118.727 27.028 118.491 27.1436 118.279Z" fill="#FFCEBF"/>
                <path d="M99.5654 1.82096C98.8369 4.20782 98.1298 6.59897 97.4913 9.01154C96.9016 10.7164 96.9702 12.5802 97.6837 14.2371C98.3972 15.8941 99.7041 17.2246 101.348 17.9676C106.376 20.6107 112.043 21.798 117.709 21.3958V2.22806C117.646 1.80781 117.669 1.37914 117.777 0.968207C117.897 0.73576 118.049 0.520916 118.227 0.329712H99.5482C99.8353 0.663958 99.7368 1.25103 99.5654 1.82096Z" fill="#FF6196"/>
                <path d="M62.0511 42.9976C61.9623 45.137 61.2139 47.1966 59.9085 48.894C55.242 54.9179 49.8829 60.3719 43.9418 65.1435C42.9837 66.0304 41.7694 66.591 40.473 66.745C39.1766 66.8989 37.8647 66.6383 36.7255 66.0005C35.5917 65.5161 34.6357 64.6925 33.9889 63.6428C33.342 62.5932 33.0361 61.369 33.1131 60.1384C33.2503 58.627 33.8779 57.202 34.9 56.0803C41.5435 49.7455 48.7415 44.019 56.4075 38.9695C56.9096 38.5758 57.5227 38.3499 58.1602 38.3237C58.7977 38.2976 59.4273 38.4725 59.9599 38.8238C60.66 39.2585 61.2259 39.8786 61.5951 40.6153C61.9642 41.352 62.122 42.1766 62.0511 42.9976Z" fill="#FF87AF"/>
                <path d="M56.9127 68.97C56.8132 68.0228 56.9348 67.0654 57.2679 66.1731C57.6011 65.2809 58.1366 64.478 58.8325 63.8277C65.3374 57.8281 72.3164 52.3638 79.7014 47.4883C79.9243 47.3468 80.13 47.2054 80.3742 47.0597C81.0193 46.594 81.8009 46.356 82.596 46.3832C83.3912 46.4103 84.1547 46.7011 84.7665 47.2097C85.3585 47.7112 85.7774 48.3865 85.9635 49.1396C86.1497 49.8928 86.0937 50.6854 85.8036 51.4049C84.8693 54.5168 83.1449 57.3337 80.7984 59.5811C76.033 64.2758 71.1755 68.8762 66.2287 73.3795C65.4838 74.1456 64.5052 74.6422 63.447 74.7911C62.3889 74.9401 61.3112 74.7329 60.3837 74.2022C59.4091 73.6958 58.5792 72.9499 57.9721 72.0347C57.3649 71.1194 57.0004 70.0648 56.9127 68.97Z" fill="#FF87AF"/>
                <path d="M87.8344 71.8015C86.6346 73.0871 85.4004 74.3126 84.2477 75.6282C83.9011 76.1367 83.6136 76.683 83.3907 77.2566C84.0249 77.4451 84.7662 77.9422 85.2804 77.7665C87.8987 76.888 90.4527 75.8339 93.3281 74.724C92.7024 76.1638 92.231 77.4922 91.5668 78.7092C88.8305 83.3078 85.4038 87.4587 81.4066 91.0164C79.8868 92.4819 78.3084 93.8832 76.6715 95.2201C75.8046 95.9395 74.7622 96.4157 73.6509 96.6001C72.5396 96.7844 71.3992 96.6702 70.3465 96.2692C69.2938 95.8681 68.3665 95.1947 67.6595 94.3176C66.9525 93.4406 66.4912 92.3916 66.3227 91.2778C66.254 90.6585 66.3087 90.0317 66.4838 89.4337C66.6589 88.8357 66.9507 88.2784 67.3426 87.7939C73.174 81.4614 79.8384 75.9503 87.1531 71.4115C87.242 71.3771 87.3363 71.3582 87.4316 71.3558L87.8344 71.8015Z" fill="#FF87AF"/>
                <path d="M97.6724 54.7335L105.004 22.1659L110.147 23.37L107.494 31.4305C105.017 38.9296 102.51 46.4287 100.093 53.9364C99.6221 55.3248 99.0051 55.5819 97.6724 54.7335Z" fill="#FF6196"/>
                <path d="M89.3859 73.8885C90.1615 70.9274 90.9328 68.1892 91.5842 65.421C92.219 62.7364 93.4264 60.2207 95.1238 58.0461C96.1651 56.6791 97.3349 57.2234 98.5305 57.519C99.6361 57.789 99.9146 58.5989 99.9618 59.6616C100.136 62.6005 99.2411 65.5031 97.4421 67.8335C95.3003 70.4887 92.5318 72.5695 89.3859 73.8885Z" fill="#FF6196"/>
                <path d="M119.944 3.83936C120.008 2.88498 119.983 1.92674 119.871 0.976845C119.783 0.711516 119.607 0.483621 119.374 0.329779C119.184 0.175101 118.961 0.0652523 118.723 0.00838844C118.585 -0.0173228 118.393 0.124089 118.208 0.325493C118.03 0.516698 117.878 0.731542 117.758 0.96399C117.65 1.37492 117.627 1.80359 117.69 2.22384V21.3873C112.023 21.7895 106.357 20.6022 101.329 17.9591C99.685 17.2161 98.3781 15.8856 97.6646 14.2286C96.951 12.5717 96.8824 10.7079 97.4722 9.00304C98.1107 6.59046 98.8178 4.19932 99.5462 1.81246C99.7177 1.24253 99.8162 0.655454 99.5462 0.321208C99.3961 0.158494 99.1888 0.0602123 98.9677 0.0469556C98.6847 0.0500088 98.4105 0.146413 98.1878 0.321208C97.8674 0.512888 97.6121 0.796593 97.4551 1.1354C96.598 3.70652 95.8438 6.30336 95.1882 8.9259C94.9407 9.95936 94.874 11.0279 94.9911 12.0841C95.1569 13.9952 95.8676 15.8186 97.0389 17.3377C98.2102 18.8569 99.7928 20.0081 101.599 20.6545C102.409 20.993 102.884 21.3273 102.657 22.3943C102.344 23.7484 102.04 25.1026 101.732 26.461C99.632 35.6656 97.5436 44.8745 95.4667 54.0877C95.4082 54.4985 95.2275 54.8822 94.9482 55.189C93.5793 56.2771 92.4291 57.6148 91.5586 59.1314C90.4493 61.1327 89.6817 63.3052 89.2875 65.5592C89.2118 66.2782 88.952 66.9655 88.5331 67.5548C88.1143 68.144 87.5505 68.6153 86.8963 68.9231C85.1094 69.8273 83.4682 70.9971 81.4841 72.2141C81.6164 69.8282 81.5906 67.4361 81.407 65.0535C81.256 64.3206 81.288 63.5618 81.5003 62.8442C81.7126 62.1267 82.0985 61.4725 82.624 60.9397C85.2375 58.3506 87.1005 55.1015 88.0148 51.538C88.2878 50.712 88.3627 49.8333 88.2333 48.9729C88.104 48.1126 87.774 47.2948 87.27 46.5856C86.7661 45.8764 86.1023 45.2957 85.3325 44.8905C84.5626 44.4853 83.7081 44.267 82.8382 44.2531C81.4298 44.2374 80.047 44.6304 78.8573 45.3844C74.7683 48.1767 70.7504 51.0715 66.8073 54.0663C64.4633 55.8318 62.2564 57.7858 59.9852 59.637C59.8873 59.5319 59.8025 59.4154 59.7324 59.2899C59.689 58.9744 59.604 58.6661 59.4796 58.3729C57.5812 55.4418 58.8968 53.3121 60.958 51.1223C63.1053 48.8714 64.2919 45.8727 64.2661 42.7619C64.3327 41.1769 63.8363 39.6194 62.8649 38.3653C62.3474 37.7286 61.7096 37.2001 60.988 36.8097C59.9629 36.2487 58.7908 36.0145 57.6289 36.1386C56.467 36.2627 55.3708 36.7391 54.4873 37.5039L53.2917 38.361C50.5621 40.315 47.7981 42.2177 45.1713 44.3089C41.3364 47.3705 37.5841 50.5341 33.9183 53.7963C32.2042 55.309 30.953 57.3744 29.1746 58.78C19.9014 66.1034 10.5297 73.294 1.1922 80.5317C0.871132 80.7232 0.575909 80.9551 0.313735 81.2216C0.286745 81.2606 0.263774 81.3023 0.245172 81.3459C0.0480521 81.8044 -0.119071 82.5629 0.112331 82.8414C0.169054 82.9019 0.23761 82.95 0.313735 82.9828C0.721934 83.1523 1.17623 83.175 1.5993 83.0471C2.15985 82.7563 2.67399 82.3837 3.12483 81.9415L29.2646 61.6811C29.7317 61.3168 30.2245 60.9869 30.7944 60.5755C30.9476 62.2831 31.5807 63.9125 32.6206 65.2757C33.6604 66.6388 35.0646 67.68 36.671 68.2791C38.2774 68.8782 40.0204 69.0107 41.6989 68.6614C43.3774 68.312 44.9229 67.4951 46.1569 66.3048C49.1565 63.4166 52.2547 60.6141 55.3101 57.773L56.4242 56.7274C58.2926 60.3827 58.104 61.3468 55.2329 63.648C37.5893 77.7663 19.9585 91.8875 2.34064 106.012C1.59073 106.611 0.108046 107.156 1.08079 108.433C2.05353 109.71 2.94914 108.394 3.69476 107.798C20.2242 94.5972 36.7423 81.3787 53.2489 68.1432C53.6774 67.8003 54.1273 67.4961 54.7487 67.0419V68.4303C54.6647 70.0345 55.0599 71.6275 55.8841 73.0064C56.7082 74.3853 57.924 75.4879 59.3767 76.1736C60.8007 76.897 62.4173 77.1503 63.9942 76.897C65.5711 76.6436 67.0271 75.8968 68.1528 74.7638C71.551 71.7642 74.9149 68.7045 78.2959 65.6792C78.5102 65.4863 78.7587 65.3406 79.153 65.0407C79.6367 67.9861 79.542 70.9975 78.8744 73.9068C78.7096 74.2936 78.4394 74.6262 78.0945 74.8667C75.3005 77.2807 72.4966 79.6847 69.6826 82.0787L28.4075 117.115C27.9243 117.437 27.4972 117.836 27.1434 118.297C27.0305 118.507 26.9672 118.741 26.9582 118.979C26.9493 119.217 26.9951 119.455 27.092 119.673C27.2856 119.818 27.5094 119.917 27.7468 119.964C27.9842 120.011 28.2291 120.004 28.4633 119.943C28.648 119.889 28.8181 119.794 28.9603 119.664C29.1746 119.493 29.3889 119.274 29.5817 119.099L59.4196 93.8158C60.8551 92.5988 62.3035 91.399 63.8162 90.1306C63.8928 90.3343 63.9544 90.5434 64.0005 90.7562C64.0861 92.4102 64.6556 94.0027 65.6383 95.3358C66.6211 96.669 67.9737 97.6842 69.5284 98.2553C71.0641 98.9225 72.7662 99.108 74.4096 98.7874C76.053 98.4669 77.5606 97.6552 78.733 96.4598C80.7213 94.6472 82.684 92.8045 84.6552 90.9705C85.9407 89.792 87.1834 88.6093 88.5376 87.3366C88.7898 88.2162 88.9944 89.1089 89.1503 90.0106C89.3473 92.1094 89.0578 94.2253 88.3042 96.1941C87.5506 98.1628 86.3532 99.9313 84.8051 101.362C79.8386 106.71 74.7606 111.942 69.7255 117.217C69.3955 117.56 68.9413 117.843 68.7613 118.25C68.5813 118.657 68.4657 119.454 68.6799 119.626L68.7399 119.664C69.1892 119.883 69.6945 119.959 70.1883 119.883C70.3267 119.854 70.45 119.777 70.5354 119.664C70.6554 119.54 70.7711 119.386 70.8868 119.27C74.9663 115.053 79.0672 110.858 83.1168 106.611C84.7513 104.955 86.288 103.205 87.7191 101.371C89.5851 99.3049 90.8224 96.7492 91.2855 94.0042C91.7486 91.2591 91.4181 88.439 90.3331 85.8754C90.2164 85.3037 90.3304 84.7092 90.6502 84.2213C90.9287 83.7413 91.2372 83.2742 91.5543 82.8114C92.569 81.494 93.4141 80.0544 94.0698 78.5262C95.3368 74.7758 97.2817 71.2898 99.8076 68.2417C100.969 66.7695 101.768 65.0448 102.14 63.207C102.512 61.3692 102.447 59.4696 101.95 57.6616C101.775 56.9741 101.775 56.2535 101.95 55.5661C104.119 48.8512 106.351 42.1577 108.562 35.4599L111.519 26.4867L112.432 23.7142C114.377 23.7142 116.211 23.6756 118.037 23.7142C119.554 23.757 120.017 23.0457 120 21.5715C119.91 15.658 119.944 9.74866 119.944 3.83936ZM43.9371 65.1435C42.9791 66.0304 41.7647 66.591 40.4683 66.745C39.1719 66.8989 37.86 66.6383 36.7208 66.0006C35.587 65.5162 34.631 64.6925 33.9842 63.6429C33.3373 62.5932 33.0314 61.369 33.1084 60.1384C33.2457 58.6271 33.8732 57.202 34.8953 56.0803C41.5388 49.7455 48.7368 44.019 56.4028 38.9695C56.8212 38.6737 57.2972 38.4693 57.7998 38.3696C58.1369 38.3074 58.4825 38.3074 58.8196 38.3696C59.2234 38.4482 59.6086 38.6023 59.9552 38.8238C60.656 39.2588 61.2224 39.8796 61.5916 40.6171C61.9607 41.3547 62.1182 42.1802 62.0464 43.0019C61.9576 45.1413 61.2092 47.2009 59.9038 48.8983C55.237 54.9207 49.878 60.3733 43.9371 65.1435ZM66.2202 73.4097C65.4752 74.1758 64.4966 74.6724 63.4385 74.8213C62.3803 74.9703 61.3027 74.7631 60.3752 74.2324C59.3988 73.7249 58.5678 72.977 57.9605 72.0593C57.3533 71.1416 56.9897 70.0844 56.9042 68.9874C56.8047 68.0401 56.9263 67.0828 57.2594 66.1905C57.5925 65.2982 58.1281 64.4954 58.8239 63.8451C65.3288 57.8454 72.3078 52.3811 79.6929 47.5056C79.9157 47.3642 80.1214 47.2228 80.3657 47.0771C81.0107 46.6114 81.7923 46.3734 82.5875 46.4005C83.3826 46.4277 84.1462 46.7185 84.758 47.2271C85.35 47.7285 85.7688 48.4038 85.955 49.157C86.1412 49.9101 86.0852 50.7028 85.795 51.4223C84.8607 54.5342 83.1364 57.351 80.7899 59.5985C76.0633 64.3208 71.1482 68.8674 66.2288 73.3925L66.2202 73.4097ZM91.5501 78.7276C88.8175 83.319 85.3967 87.4638 81.407 91.0176C79.8872 92.4831 78.3088 93.8844 76.6718 95.2214C75.8049 95.9408 74.7625 96.417 73.6512 96.6013C72.5399 96.7856 71.3996 96.6714 70.3469 96.2704C69.2942 95.8694 68.3669 95.1959 67.6599 94.3189C66.9529 93.4419 66.4915 92.3928 66.323 91.279C66.2543 90.6597 66.3091 90.0329 66.4842 89.435C66.6592 88.837 66.9511 88.2796 67.3429 87.7951C73.1743 81.4627 79.8387 75.9515 87.1534 71.4128C87.2424 71.3783 87.3366 71.3594 87.432 71.3571L87.8605 71.7856C86.6606 73.0712 85.4265 74.2967 84.2738 75.6123C83.9272 76.1208 83.6396 76.6671 83.4167 77.2407C84.0509 77.4292 84.7923 77.9263 85.3065 77.7506C87.3763 77.0564 89.4117 76.2508 91.5929 75.3937L93.3541 74.7081C92.6942 76.1651 92.2228 77.4935 91.5586 78.7105L91.5501 78.7276ZM97.4336 67.8646C95.8352 69.8996 93.8317 71.5806 91.5501 72.8012C90.8444 73.1954 90.1202 73.564 89.3775 73.9068C90.1402 70.9885 90.903 68.2846 91.5501 65.5506L91.5758 65.4392C92.2106 62.7546 93.418 60.2389 95.1153 58.0644C96.1566 56.6974 97.3265 57.2416 98.5221 57.5373C99.6277 57.8073 99.9062 58.6172 99.9533 59.6799C100.129 62.6162 99.2372 65.5171 97.4422 67.8475L97.4336 67.8646ZM107.461 31.4404C104.984 38.9395 102.477 46.4386 100.06 53.9463C99.6062 55.3561 98.9892 55.6132 97.6565 54.7648L104.011 26.5124L104.988 22.1758L110.131 23.3799L109.098 26.5124L107.461 31.4404Z" fill="black"/>
            </g>
            <defs>
                <clipPath id="clip0_1_3263">
                    <rect width="120" height="120" fill="white"/>
                </clipPath>
            </defs>
    </g>
    <g id="jestSvg">
        <path d="M107.525 59.083C107.525 52.9145 102.524 47.9135 96.3553 47.9135C95.9581 47.9135 95.567 47.9348 95.1809 47.9756L110.522 2.72803H45.327L60.647 47.936C60.421 47.9218 60.1945 47.9144 59.968 47.9139C53.7995 47.9139 48.7986 52.914 48.7986 59.0834C48.7986 64.0695 52.0665 68.2911 56.5764 69.7273C54.1945 73.8533 51.197 77.5697 47.7939 80.7807C43.1662 85.146 37.8702 88.4565 32.1422 90.496C25.3223 86.9926 22.102 79.2012 25.0077 72.3698C25.3359 71.5981 25.6709 70.8162 25.9911 70.0377C30.9317 68.8846 34.6137 64.4555 34.6137 59.1633C34.6137 52.9944 29.6128 47.9939 23.4439 47.9939C17.2749 47.9939 12.2744 52.9944 12.2744 59.1633C12.2744 62.9461 14.1562 66.2876 17.0334 68.3081C14.2689 74.6024 10.2051 81.1901 8.93887 88.8251C7.4214 97.9749 8.93377 107.688 16.8476 113.173C35.2783 125.947 55.2847 105.254 76.3786 100.052C84.0234 98.1671 92.4151 98.4707 99.1504 94.5701C104.208 91.6406 107.543 86.7855 108.489 81.3351C109.424 75.9507 108.061 70.5896 104.927 66.2425C106.608 64.2361 107.528 61.7009 107.525 59.083Z" fill="#99425B"/>
            <path d="M105.802 80.8682C104.98 85.6005 102.058 89.7336 97.7837 92.2094C93.7993 94.5169 89.025 95.2057 83.9696 95.9344C81.2617 96.3247 78.4614 96.7291 75.7258 97.4034C68.4927 99.187 61.4866 102.667 54.7118 106.032C41.1528 112.767 29.4434 118.583 18.4023 110.931C10.3146 105.325 10.6879 94.9544 11.6301 89.2715C12.5034 84.006 14.8644 79.1569 17.1472 74.4676C17.5361 73.6706 17.9219 72.8721 18.3045 72.0721C19.4553 72.5321 20.6627 72.835 21.8943 72.9726C19.5703 80.6424 23.2251 88.9819 30.8958 92.9225L31.946 93.462L33.0574 93.0662C39.1217 90.9063 44.7099 87.4411 49.6662 82.7645C52.8699 79.7419 55.6246 76.3979 57.8887 72.8247C58.577 72.9285 59.2722 72.9807 59.9683 72.9807C67.0088 72.9807 72.8389 67.7174 73.7411 60.9197C76.623 60.8142 79.6838 60.8134 82.5823 60.9188C83.4837 67.7174 89.3146 72.9811 96.3551 72.9811C99.299 72.9811 102.03 72.0585 104.279 70.4913C105.841 73.6882 106.424 77.2852 105.802 80.8682ZM23.4445 50.7217C28.0994 50.7217 31.886 54.5088 31.886 59.1637C31.886 60.8355 31.3954 62.3946 30.5531 63.7076C29.15 65.896 26.7648 67.396 24.0245 67.5831C23.8327 67.5958 23.6393 67.6052 23.4445 67.6052C22.4071 67.6052 21.4135 67.416 20.4946 67.0724C18.6442 66.3766 17.0946 65.0568 16.1132 63.3406C15.3844 62.0692 15.0015 60.6291 15.0026 59.1637C15.0026 54.5088 18.7897 50.7217 23.4445 50.7217ZM51.5272 59.0833C51.5272 54.8541 54.6535 51.3425 58.7157 50.7353C59.1247 50.6737 59.5431 50.6418 59.9687 50.6418C62.675 50.6418 65.0845 51.9237 66.6296 53.9102C67.0166 54.4055 67.3471 54.9424 67.6151 55.511C68.1398 56.6287 68.4113 57.8485 68.4102 59.0833C68.4102 59.7581 68.3286 60.4141 68.1785 61.0434C67.3558 64.4873 64.419 67.12 60.8203 67.4823C60.5406 67.5104 60.2565 67.5248 59.9687 67.5248C58.345 67.5262 56.7558 67.0563 55.3938 66.1723C53.0697 64.6668 51.5272 62.0523 51.5272 59.0833ZM86.7597 49.0448C84.9227 50.7983 83.6006 53.021 82.9369 55.4723C79.7551 55.355 76.57 55.355 73.3882 55.4723C72.6739 52.8226 71.1934 50.4849 69.2015 48.7094L77.9368 31.0466L86.7597 49.0453V49.0448ZM49.1322 5.45675H106.717L93.1161 45.5703C92.5309 45.7104 91.9556 45.8887 91.3937 46.1039L77.958 18.6956L64.4841 45.9402C63.8967 45.7386 63.2964 45.5768 62.6873 45.4559L49.1322 5.45675ZM104.797 59.0837C104.797 59.9298 104.67 60.747 104.438 61.5187C103.886 63.3355 102.74 64.9144 101.184 66.0023C99.7694 66.9949 98.0831 67.5268 96.3551 67.5252C92.4575 67.5252 89.1696 64.8691 88.2027 61.2721C88.0107 60.5585 87.9135 59.8227 87.9136 59.0837C87.9136 57.9298 88.1466 56.8294 88.5675 55.8269C88.7847 55.3139 89.0522 54.8237 89.366 54.3634C90.8852 52.121 93.4486 50.6422 96.3551 50.6422C96.6217 50.6422 96.8844 50.6558 97.1451 50.6805C101.431 51.0797 104.797 54.695 104.797 59.0837H104.797ZM110.253 59.0837C110.253 52.2987 105.364 46.6375 98.9253 45.4283L114.328 0H41.5223L56.9486 45.5201C50.7334 46.9032 46.0713 52.4573 46.0713 59.0833C46.0713 64.0588 48.7006 68.4287 52.6412 70.8846C50.7457 73.7086 48.4982 76.366 45.9225 78.7963C41.8374 82.6497 37.2867 85.5724 32.3805 87.4955C27.4387 84.3913 25.3498 78.537 27.519 73.4374L27.6891 73.0377L28.008 72.2877C33.4358 70.3943 37.3419 65.2284 37.3419 59.1637C37.3419 51.5002 31.1075 45.2658 23.4445 45.2658C15.7811 45.2658 9.54671 51.5002 9.54671 59.1637C9.54671 63.0315 11.1369 66.5342 13.6956 69.0563C13.2184 70.0674 12.7339 71.0751 12.2423 72.0793C9.90258 76.8843 7.25116 82.3304 6.24817 88.3786C4.25663 100.39 7.46928 109.992 15.2947 115.415C20.0431 118.706 24.8655 120 29.7181 120C38.8552 120 48.0985 115.409 57.1391 110.919C63.6499 107.685 70.3826 104.341 77.0328 102.701C79.5074 102.091 82.0534 101.723 84.749 101.335C90.0948 100.563 95.6221 99.7662 100.518 96.9306C106.194 93.6431 110.079 88.1286 111.178 81.8019C112.121 76.3702 110.986 70.9301 108.218 66.316C109.552 64.1395 110.256 61.636 110.253 59.0833L110.253 59.0837Z" fill="white"/>
    </g>>
    <!--social-->
    <g id="linkedInSvg">
        <rect width="32" height="32" rx="3" fill="white"/>
        <path d="M6.33333 2.5C4.76853 2.5 3.5 3.76853 3.5 5.33333C3.5 6.89814 4.76853 8.16667 6.33333 8.16667C7.89814 8.16667 9.16667 6.89814 9.16667 5.33333C9.16667 3.76853 7.89814 2.5 6.33333 2.5Z" fill="black"/>
        <path d="M3.66667 10.5C3.57462 10.5 3.5 10.5746 3.5 10.6667V28C3.5 28.092 3.57462 28.1667 3.66667 28.1667H9C9.09205 28.1667 9.16667 28.092 9.16667 28V10.6667C9.16667 10.5746 9.09205 10.5 9 10.5H3.66667Z" fill="black"/>
        <path d="M12.3333 10.5C12.2413 10.5 12.1667 10.5746 12.1667 10.6667V28C12.1667 28.092 12.2413 28.1667 12.3333 28.1667H17.6667C17.7587 28.1667 17.8333 28.092 17.8333 28V18.6667C17.8333 18.0036 18.0967 17.3677 18.5656 16.8989C19.0344 16.4301 19.6703 16.1667 20.3333 16.1667C20.9964 16.1667 21.6323 16.4301 22.1011 16.8989C22.5699 17.3677 22.8333 18.0036 22.8333 18.6667V28C22.8333 28.092 22.908 28.1667 23 28.1667H28.3333C28.4254 28.1667 28.5 28.092 28.5 28V16.507C28.5 13.2713 25.6859 10.74 22.4665 11.0327C21.4736 11.1229 20.4919 11.3697 19.5753 11.7626L17.8333 12.5091V10.6667C17.8333 10.5746 17.7587 10.5 17.6667 10.5H12.3333Z" fill="black"/>
    </g>
    <g id="telegramSvg">
        <path id="Vector"
              d="M32.1586 0.340967L1.1503 12.5808C-0.0975299 13.1508 -0.519581 14.2923 0.8487 14.9118L8.80368 17.4995L28.0378 5.33177C29.088 4.5679 30.1632 4.77159 29.238 5.6119L12.7185 20.9224L12.1996 27.4017C12.6802 28.4021 13.5603 28.4068 14.1216 27.9095L18.692 23.4829L26.5195 29.4827C28.3375 30.5844 29.3267 29.8734 29.7179 27.8541L34.852 2.96937C35.3851 0.483814 34.476 -0.611346 32.1586 0.340967Z" fill="white"/>
    </g>
    <g id="gitHubMinSvg">
        <path fill-rule="evenodd" clip-rule="evenodd" d="M16.0001 1C7.52841 1 0.666748 7.86167 0.666748 16.3333C0.666748 23.1183 5.05591 28.8492 11.1509 30.8808C11.9176 31.015 12.2051 30.555 12.2051 30.1525C12.2051 29.7883 12.1859 28.5808 12.1859 27.2967C8.33342 28.0058 7.33675 26.3575 7.03008 25.495C6.85758 25.0542 6.11008 23.6933 5.45842 23.3292C4.92175 23.0417 4.15508 22.3325 5.43925 22.3133C6.64675 22.2942 7.50925 23.425 7.79675 23.885C9.17675 26.2042 11.3809 25.5525 12.2626 25.15C12.3967 24.1533 12.7992 23.4825 13.2401 23.0992C9.82842 22.7158 6.26342 21.3933 6.26342 15.5283C6.26342 13.8608 6.85758 12.4808 7.83508 11.4075C7.68175 11.0242 7.14508 9.4525 7.98841 7.34417C7.98841 7.34417 9.27258 6.94167 12.2051 8.91583C13.4317 8.57083 14.7351 8.39833 16.0384 8.39833C17.3417 8.39833 18.6451 8.57083 19.8717 8.91583C22.8042 6.9225 24.0884 7.34417 24.0884 7.34417C24.9317 9.4525 24.3951 11.0242 24.2417 11.4075C25.2192 12.4808 25.8134 13.8417 25.8134 15.5283C25.8134 21.4125 22.2292 22.7158 18.8176 23.0992C19.3734 23.5783 19.8526 24.4983 19.8526 25.9358C19.8526 27.9867 19.8334 29.635 19.8334 30.1525C19.8334 30.555 20.1209 31.0342 20.8876 30.8808C26.9443 28.8492 31.3334 23.0992 31.3334 16.3333C31.3334 7.86167 24.4717 1 16.0001 1Z" fill="white"/>
    </g>
    <g id="typeScriptSvg">
        <path d="M0 60V120H60H120V60V0H60H0V60Z" fill="#007ACC"/>
            <path d="M26.5374 60.3979L26.4993 65.3122H34.3088H42.1184L42.1184 87.5026V109.693H47.6422H53.166V87.5026L53.166 65.3122H60.9755H68.785V60.4931C68.785 57.8264 68.7279 55.5979 68.6517 55.5407C68.5946 55.4645 59.0898 55.4264 47.566 55.4455L26.5946 55.5026L26.5374 60.3979Z" fill="white"/>
            <path d="M96.8264 55.3636C99.874 56.1255 102.198 57.4779 104.331 59.6874C105.436 60.8684 107.074 63.0208 107.207 63.535C107.245 63.6874 102.026 67.1922 98.8644 69.1541C98.7502 69.2303 98.293 68.7351 97.7787 67.9731C96.2359 65.7255 94.6168 64.7541 92.1406 64.5827C88.5025 64.335 86.1597 66.2398 86.1787 69.4208C86.1787 70.3541 86.3121 70.9065 86.693 71.6684C87.493 73.3255 88.9787 74.316 93.6454 76.3351C102.236 80.0303 105.912 82.4684 108.198 85.935C110.75 89.8017 111.322 95.9731 109.588 100.564C107.683 105.554 102.96 108.945 96.3121 110.068C94.2549 110.43 89.3787 110.373 87.1692 109.973C82.3502 109.116 77.7787 106.735 74.9597 103.611C73.8549 102.392 71.7025 99.2112 71.8359 98.9827C71.893 98.9065 72.3883 98.6017 72.9406 98.2779C73.474 97.9731 75.493 96.8112 77.3978 95.7065L80.8454 93.7065L81.5692 94.7731C82.5787 96.316 84.7883 98.4303 86.1216 99.135C89.9502 101.154 95.2073 100.868 97.7978 98.5446C98.9025 97.535 99.3597 96.4874 99.3597 94.9446C99.3597 93.5541 99.1883 92.9446 98.4644 91.897C97.5311 90.5636 95.6263 89.4398 90.2168 87.097C84.0263 84.4303 81.3597 82.7731 78.9216 80.1446C77.5121 78.6208 76.1787 76.1827 75.6264 74.1446C75.1692 72.4493 75.0549 68.2017 75.4168 66.4874C76.693 60.5065 81.2073 56.335 87.7216 55.097C89.8359 54.697 94.7502 54.8493 96.8264 55.3636Z" fill="white"/>
    </g>
</svg>
